HIERARCHY
ROOT hip
{
  OFFSET 0 0 0
  CHANNELS 6 Xposition Yposition Zposition Zrotation Yrotation Xrotation
  JOINT abdomen
  {
    OFFSET 0 20.6881 -0.73152
    CHANNELS 3 Zrotation Xrotation Yrotation
    JOINT chest
    {
      OFFSET 0 11.7043 -0.48768
      CHANNELS 3 Zrotation Xrotation Yrotation
      JOINT neck
      {
        OFFSET 0 22.1894 -2.19456
        CHANNELS 3 Zrotation Xrotation Yrotation
        JOINT head
        {
          OFFSET -0.24384 7.07133 1.2192
          CHANNELS 3 Zrotation Xrotation Yrotation
          JOINT leftEye
          {
            OFFSET 4.14528 8.04674 8.04672
            CHANNELS 3 Zrotation Xrotation Yrotation
            End Site
            {
              OFFSET 1 0 0
            }
          }
          JOINT rightEye
          {
            OFFSET -3.6576 8.04674 8.04672
            CHANNELS 3 Zrotation Xrotation Yrotation
            End Site
            {
              OFFSET 1 0 0
            }
          }
        }
      }
      JOINT rCollar
      {
        OFFSET -2.68224 19.2634 -4.8768
        CHANNELS 3 Zrotation Xrotation Yrotation
        JOINT rShldr
        {
          OFFSET -8.77824 -1.95073 1.46304
          CHANNELS 3 Zrotation Xrotation Yrotation
          JOINT rForeArm
          {
            OFFSET -28.1742 -1.7115 0.48768
            CHANNELS 3 Zrotation Xrotation Yrotation
            JOINT rHand
            {
              OFFSET -22.5879 0.773209 7.07136
              CHANNELS 3 Zrotation Xrotation Yrotation
              JOINT rThumb1
              {
                OFFSET -1.2192 -0.487915 3.41376
                CHANNELS 3 Zrotation Xrotation Yrotation
                JOINT rThumb2
                {
                  OFFSET -3.37035 -0.52449 3.41376
                  CHANNELS 3 Zrotation Xrotation Yrotation
                  End Site
                  {
                    OFFSET -1.78271 -1.18214 1.43049
                  }
                }
              }
              JOINT rIndex1
              {
                OFFSET -7.75947 0.938293 5.60832
                CHANNELS 3 Zrotation Xrotation Yrotation
                JOINT rIndex2
                {
                  OFFSET -2.54057 -0.884171 1.56538
                  CHANNELS 3 Zrotation Xrotation Yrotation
                  End Site
                  {
                    OFFSET -1.62519 -0.234802 1.16502
                  }
                }
              }
              JOINT rMid1
              {
                OFFSET -8.24714 1.18213 3.41376
                CHANNELS 3 Zrotation Xrotation Yrotation
                JOINT rMid2
                {
                  OFFSET -3.10165 -0.590103 1.0647
                  CHANNELS 3 Zrotation Xrotation Yrotation
                  End Site
                  {
                    OFFSET -2.48547 -0.328903 0.83742
                  }
                }
              }
              JOINT rRing1
              {
                OFFSET -8.82822 0.546677 1.51678
                CHANNELS 3 Zrotation Xrotation Yrotation
                JOINT rRing2
                {
                  OFFSET -2.60934 -0.819778 -0.0198488
                  CHANNELS 3 Zrotation Xrotation Yrotation
                  End Site
                  {
                    OFFSET -2.33842 -0.294052 0.168128
                  }
                }
              }
              JOINT rPinky1
              {
                OFFSET -8.27202 -0.0477905 -0.4584
                CHANNELS 3 Zrotation Xrotation Yrotation
                JOINT rPinky2
                {
                  OFFSET -1.82734 -0.647385 -0.700984
                  CHANNELS 3 Zrotation Xrotation Yrotation
                  End Site
                  {
                    OFFSET -1.69225 -0.51767 -0.607171
                  }
                }
              }
            }
          }
        }
      }
      JOINT lCollar
      {
        OFFSET 2.68224 19.2634 -4.8768
        CHANNELS 3 Zrotation Xrotation Yrotation
        JOINT lShldr
        {
          OFFSET 8.77824 -1.95073 1.46304
          CHANNELS 3 Zrotation Xrotation Yrotation
          JOINT lForeArm
          {
            OFFSET 28.1742 -1.7115 0.48768
            CHANNELS 3 Zrotation Xrotation Yrotation
            JOINT lHand
            {
              OFFSET 22.5879 0.773209 7.07136
              CHANNELS 3 Zrotation Xrotation Yrotation
              JOINT lThumb1
              {
                OFFSET 1.2192 -0.487915 3.41376
                CHANNELS 3 Zrotation Xrotation Yrotation
                JOINT lThumb2
                {
                  OFFSET 3.37035 -0.52449 3.41376
                  CHANNELS 3 Zrotation Xrotation Yrotation
                  End Site
                  {
                    OFFSET 1.78271 -1.18214 1.43049
                  }
                }
              }
              JOINT lIndex1
              {
                OFFSET 7.75947 0.938293 5.60832
                CHANNELS 3 Zrotation Xrotation Yrotation
                JOINT lIndex2
                {
                  OFFSET 2.54057 -0.884171 1.56538
                  CHANNELS 3 Zrotation Xrotation Yrotation
                  End Site
                  {
                    OFFSET 1.62519 -0.234802 1.16502
                  }
                }
              }
              JOINT lMid1
              {
                OFFSET 8.24714 1.18213 3.41376
                CHANNELS 3 Zrotation Xrotation Yrotation
                JOINT lMid2
                {
                  OFFSET 3.10165 -0.590103 1.0647
                  CHANNELS 3 Zrotation Xrotation Yrotation
                  End Site
                  {
                    OFFSET 2.48547 -0.328903 0.83742
                  }
                }
              }
              JOINT lRing1
              {
                OFFSET 8.82822 0.546677 1.51678
                CHANNELS 3 Zrotation Xrotation Yrotation
                JOINT lRing2
                {
                  OFFSET 2.60934 -0.819778 -0.0198488
                  CHANNELS 3 Zrotation Xrotation Yrotation
                  End Site
                  {
                    OFFSET 2.33842 -0.294052 0.168128
                  }
                }
              }
              JOINT lPinky1
              {
                OFFSET 8.27202 -0.0477905 -0.4584
                CHANNELS 3 Zrotation Xrotation Yrotation
                JOINT lPinky2
                {
                  OFFSET 1.82734 -0.647385 -0.700984
                  CHANNELS 3 Zrotation Xrotation Yrotation
                  End Site
                  {
                    OFFSET 1.69225 -0.51767 -0.607171
                  }
                }
              }
            }
          }
        }
      }
    }
  }
  JOINT rButtock
  {
    OFFSET -8.77824 4.35084 1.2192
    CHANNELS 3 Zrotation Xrotation Yrotation
    JOINT rThigh
    {
      OFFSET 0 -1.70687 -2.19456
      CHANNELS 3 Zrotation Xrotation Yrotation
      JOINT rShin
      {
        OFFSET 0 -36.8199 0.73152
        CHANNELS 3 Zrotation Xrotation Yrotation
        JOINT rFoot
        {
          OFFSET 0.73152 -45.1104 -5.12064
          CHANNELS 3 Zrotation Xrotation Yrotation
          End Site
          {
            OFFSET -1.1221 -3.69964 12.103
          }
        }
      }
    }
  }
  JOINT lButtock
  {
    OFFSET 8.77824 4.35084 1.2192
    CHANNELS 3 Zrotation Xrotation Yrotation
    JOINT lThigh
    {
      OFFSET 0 -1.70687 -2.19456
      CHANNELS 3 Zrotation Xrotation Yrotation
      JOINT lShin
      {
        OFFSET 0 -36.8199 0.73152
        CHANNELS 3 Zrotation Xrotation Yrotation
        JOINT lFoot
        {
          OFFSET -0.73152 -45.1104 -5.12064
          CHANNELS 3 Zrotation Xrotation Yrotation
          End Site
          {
            OFFSET 1.1221 -3.69964 12.103
          }
        }
      }
    }
  }
}
MOTION
Frames:	4
Frame Time:	0.03333
10.570350382477045 60.54877042770386 -3.319251968059689 -4.836930795659699 2.030942448994717 1.6077617505455923 -2.65212403490187 11.648345483191378 2.9376118549432397 2.113098952539392 -7.744847122525838 1.6511969511901132 -3.5918129231757616 13.11191585722077 -2.219508177166313 6.147760210601036 -19.823719065896984 -3.5426308653966156 -1.0338317334817047 0.45485367301264884 0.7945841873996154 0.4258717929821096 -0.626698137600702 -0.9767676374003638 -1.033727039488333 -0.1615705794158846 -0.6751999512271972 36.10399746209388 21.806160981925675 13.025170747214316 -19.526318969056288 -24.730678937343175 49.970749967891315 -4.529992339643081 -8.456871291611218 -3.6760347051707196 -0.6957466543544765 0.6169223226294155 -0.9428291744665109 0.7583169501239055 -1.1672011021448414 -1.3097017933980504 1.2649895608221486 -1.0398873365111556 -0.916301893668945 7.042070175803009 4.653432214078605 -0.33542573430171313 -1.546149602250669 -1.1296984544030053 0.5440369471093862 2.8952330924642493 0.19413158529321634 1.264049342594214 0.49158216150074613 0.0168268113505611 -0.7579888876003333 8.484582222847607 1.3633674434804868 0.0036534041540163516 0.35164543254851005 -0.6335009526531818 -1.012431256708174 -0.20954428068132033 -1.2853344532037951 0.08778541985419878 -0.7529644296921427 0.16000502535292363 0.0650233475376685 -41.210205904460395 23.562281164711408 -19.213790003204014 18.321668259857383 -23.38432400098131 -47.62848002600801 3.580678007281348 -10.64831016605313 3.9318440726079147 0.07287214202851229 -0.285512632837964 -1.8050503773392355 -1.0188049971425592 -0.7657574807292824 0.02358154827458637 -0.4739156104082437 0.2543875675119217 0.10329118990995743 -6.8043134252289805 4.866408184570181 -0.19765576280174457 -0.5155335004858652 0.11494530690299748 -0.6013907392610709 -1.5520755384075957 1.5830573832044792 0.8029060258513355 0.21322155047679206 0.5028818023480331 0.11660178785928424 -7.1195232403304844 1.3148923102804368 0.25329286961486847 0.8794665233925075 0.7467505050121649 0.5634277474413467 -1.6670978450213145 -0.9287641074181622 -0.07560827312133708 -0.2242444486007745 0.35428068494894494 -1.0872828729355204 -24.768683817432418 -29.143153603447956 -20.976661827984305 -4.627626051847005 47.62868493168312 3.585909505298755 -3.1435002235104577 -7.48081847619618 -8.538957358830078 0.8078650099930292 0.669646473823448 -0.4337552186664794 27.863558643581086 -25.24869243682799 22.768599522777585 2.599111521658816 47.53614269861861 -3.938547476391459 4.6386632106589225 -8.205433245242832 11.121190629276146
11.064553167670965 60.63392162322998 -3.303392929956317 -4.889459219245328 2.059186988760012 1.6389624815610335 -2.7239784787440504 11.685102999983448 2.949813774452056 2.1153183371328232 -7.787341998220719 1.6517372831864847 -3.6012526714955424 13.194556023536048 -2.259200327423961 6.169054179112197 -19.835856312052094 -3.5906372768648733 -1.0241105600237783 0.4486853718618926 0.7966302559428573 0.38760875308658077 -0.6449671860831936 -1.0045688551998428 -1.0337720760481728 -0.1516318003998698 -0.6818411362562711 36.1575188244301 21.788692773123365 13.06495233026141 -19.545928442163394 -24.74207340042605 50.02640576434317 -4.529798533025382 -8.465589174313093 -3.63142588592772 -0.7392906044171887 0.6117287641784142 -0.9507765264526439 0.7813384228865509 -1.1439651187535753 -1.3016216796099254 1.238577859631944 -1.0032536168977924 -0.8848840907039441 7.072907199245147 4.663861059167568 -0.31468180946214974 -1.506230348203118 -1.1341953869195183 0.5203725827911135 2.8727566474530297 0.18752124283711336 1.27469846128391 0.46956520679376873 -0.02870349646100835 -0.7807226386441919 8.463655377004335 1.3902647284319969 -0.03958041263169498 0.3772613099787024 -0.63909594480048 -1.0238594438500745 -0.15770303815921777 -1.3077344854736752 0.10685520129516861 -0.7436463441169529 0.17426694058758627 0.023506042667745992 -41.26042145523833 23.610881375750633 -19.300458273582308 18.327774448975376 -23.43105103264066 -47.71656897573367 3.580951214848149 -10.658581063017536 3.9316370324986987 0.09047268574598889 -0.23873586886372014 -1.804872365533992 -1.0244690382334982 -0.777962601889272 0.05662434929266844 -0.5090177134610846 0.2734288542574479 0.15643977332788275 -6.826316879640177 4.872408078869214 -0.1862758939121364 -0.5546799826618528 0.10411310712703327 -0.5485322788003125 -1.542849660386201 1.5942676446231743 0.8568963233627591 0.25181026499772613 0.5014065348481632 0.17296739037628556 -7.131717262433073 1.3574095975335316 0.27146464126254033 0.895115340554653 0.7538963769878793 0.5330459987960722 -1.6502870419266205 -0.9645504566876208 -0.0784161745612999 -0.21249204091670973 0.352662357002475 -1.067931666356405 -24.812468745106788 -29.192457323971695 -21.017193878066454 -4.674117015093166 47.71543174923686 3.598926992083153 -3.1426208366548187 -7.473736423800522 -8.585254088571718 0.7749532098687938 0.6501501257244697 -0.40833656294857124 27.875480738777345 -25.29114889270879 22.75536944635527 2.5953047584135915 47.59351287255213 -3.9655548981433357 4.661301872662929 -8.188772706309878 11.112377977699538
11.524920258671045 60.64070463180542 -3.271591884549707 -4.903233576367128 2.050626840739282 1.6432832165413014 -2.7219183229356454 11.704447803260216 2.9869988183974865 2.107613670305637 -7.7957567912781744 1.6455958759055853 -3.610478549516937 13.210673562429985 -2.2658747029035333 6.170729283006143 -19.86174785164832 -3.5918978736535636 -1.0582577706141396 0.48150240311139403 0.801427610061145 0.38892473844057185 -0.6408776103176484 -0.9953739264731248 -1.0214286435574904 -0.14311882337309514 -0.6840450462023637 36.19478433654169 21.818352869594147 13.058983598700465 -19.547345706416174 -24.74763829705232 50.06673461629751 -4.534802500366062 -8.44543926248791 -3.650900889685542 -0.7363525558570254 0.6413699175464183 -0.9467289990391766 0.8084855433512954 -1.180237265227751 -1.3078119654320723 1.2528554095965037 -0.9838571603154255 -0.8816630161800484 7.074866182876471 4.675544951516522 -0.29540850972825466 -1.5107035885009474 -1.12282557655068 0.5371203133576905 2.8817101716812705 0.1823012707639311 1.2843337237686825 0.48081831697733496 0.000523950214534025 -0.7644910142467739 8.487781312700111 1.3836531053154246 -0.03583885634870316 0.3643584423063136 -0.6387883194835651 -1.0488216508323556 -0.1676468330954043 -1.3269420446368088 0.09690153460119728 -0.7461712729540361 0.18174407673804616 0.0497633442301113 -41.27263383347431 23.606387111276764 -19.30685133064544 18.332739996501974 -23.454927666431733 -47.714670183144406 3.5656259778979327 -10.607611630109963 3.9443565522805546 0.055553770501121834 -0.23083776894480532 -1.7962005866090145 -1.036193591552354 -0.7710549327608619 0.051287997199331525 -0.5176040082997312 0.2665051235123177 0.1470611765455148 -6.836533135091224 4.888723266362259 -0.17791424826415986 -0.5640190924130817 0.0780958493613969 -0.5532595167579017 -1.5438024717754177 1.6031808280466293 0.8331392178821623 0.2478925378589156 0.5019070596482782 0.16196907826527254 -7.168934109446826 1.3718891716871355 0.2766936313198611 0.9096089486125671 0.7723378877469136 0.5286518392822268 -1.6723272086046055 -0.9858467730763091 -0.07736939471014256 -0.22956148406536497 0.3362509598916682 -1.084001180482741 -24.830353595448464 -29.157517491272493 -21.025523293759285 -4.673678602325816 47.725994636788286 3.619174660990833 -3.1305239313044915 -7.4714261123137655 -8.582503229883494 0.7457872348957816 0.6775865687335878 -0.4057839931896905 27.895482947761728 -25.29500794958985 22.749983842194716 2.5980515616769946 47.59872772198344 -3.9721268207853573 4.653853551373031 -8.211294401324349 11.139082309806994
11.905682180076838 60.58069467544556 -3.254466434009373 -4.877538831596363 2.0172073654606444 1.6238180311804113 -2.666180564213756 11.697200972550831 3.016299903050018 2.097369240324264 -7.772044935800829 1.6404422847333993 -3.6131188445179703 13.166688851722395 -2.2449175480958186 6.156977550885968 -19.882011315368455 -3.55681418009497 -1.104650549890982 0.5200970273467858 0.8020218365189362 0.41819295280772273 -0.6197696577396645 -0.9617527471705601 -1.006541072322684 -0.14306130037367895 -0.6811933355021776 36.19418327989473 21.8694068260927 13.022875803653191 -19.53628079996075 -24.74860989146175 50.07351699414333 -4.5411067649699834 -8.41539411410267 -3.7097762665574057 -0.699728654640594 0.6779506498328611 -0.9339906962371028 0.8183095965335951 -1.2360901766701784 -1.3275956083630143 1.2866989969339169 -0.9917559539254279 -0.9054468020870906 7.054349148383399 4.679777961254637 -0.29286042228101683 -1.5461997614523864 -1.1065725010904 0.5743390813621478 2.912312620814101 0.177953855357218 1.283478029131727 0.5118660090666858 0.06744731764108255 -0.7306488142915359 8.530364127080556 1.350861580553605 0.004789349990354097 0.3280377908168601 -0.6316869504591616 -1.0695203256686676 -0.21505336185546453 -1.3290512924298734 0.07304496449081213 -0.752720143707609 0.17962495718719682 0.11114470683628207 -41.25327707736649 23.56461025921838 -19.250488609614493 18.336377072235006 -23.445479807262313 -47.64893644257221 3.5463742359486057 -10.540327436596167 3.961262124249983 0.003911350516890114 -0.25705267530954895 -1.784596522095986 -1.0475797303421768 -0.7538415753919604 0.017291584379239312 -0.499574496685866 0.24363420839610353 0.09504261590925633 -6.832501615933624 4.901644276724631 -0.1761179085124465 -0.5455164301166345 0.0565382782369557 -0.5976060140480904 -1.5485528683431615 1.6061553754301698 0.765208290831331 0.2210704250089152 0.5028448766378327 0.11168736002975428 -7.202907470378469 1.3488419789933968 0.2718961171190147 0.9087118459537683 0.789793076501116 0.5441661870950876 -1.7127819921717677 -0.9848446562590212 -0.07118903400663305 -0.2556730304580593 0.3179702253823935 -1.1137769632825882 -24.816505386906265 -29.080653957447755 -21.006656603724416 -4.635163592482937 47.67396567078571 3.6316585392463234 -3.120409274917349 -7.475477268265229 -8.543919491262093 0.7366925712116451 0.7230060460537032 -0.42254207576172836 27.911147986623153 -25.267345683451296 22.755017691613016 2.6041372602274757 47.56417037987776 -3.9581129801557835 4.628001285364532 -8.247873479424353 11.176807152140269
